<svg xmlns="http://www.w3.org/2000/svg" viewBox="0 0 240 324"><title>peep-8</title><g fill="none" fill-rule="evenodd"><path fill="#fff" d="M198.1 286.3c4.1-.2 2.5-7.3 2.2-10-3.3-9.5-2.5-20-3.8-30l-2.6-28.1c-1.7-19-13.8-57.8-27.6-64a19 19 0 0 0-18-14.7c-6.1-7.4-13.6-12.5-23.1-11.5-4 .2-7.8 4.4-11.6 5.2-2.1.3-20.9-.5-24.7 1.8-2.6 1.3-5 3.8-4.2 7 1.3 3.8-2.6-.3-10.5 3.8-16.3 9.7-6.6 22.8-6.2 23.2-10 14.1-19 25.6-23 43-2.7 12.8-2.4 26-4.7 38.9Q39 257.6 37 264c-1.4 5.7-2 19.8-2.8 20-1.5.3.8 3.2 2.3 3.2 41.7 7 84.1.3 126.1-.8q17.8-.7 35.5 0"/><path fill="#000" d="M134.8 170.3q.2-.3.3 0l.3 2.8a335 335 0 0 1 1.6 23.5q.5 22.8.5 45.6l10.3-.6 3.6-.2 1.4-.1c1-.1 2.1-.3 2.8.5q.6.6.2 1.3c-.6 1-1.5.9-2.5 1l-15.9.4q0 9.6-.5 19.3l-.2 2.8q-.4 11.8-1.2 23.4c0 .7-1 .7-1 0a1109 1109 0 0 1-2-45.4H107q.8 2.3.6 4.7 0 2.7-.6 5.2c-1.5 6-5.1 11.4-9.3 15.9l-.2.1Q96 272 94.8 274q-.8 2.1-1.2 4.4v.2l-1.2 5.5c-.4 1.8-.5 4.3-1.9 5.6s-3 .6-3.6-1c-.5-1.1 0-2.4.3-3.6l2.2-9.4q.4-2.3 1.5-4.4 1.3-2 3.2-3.4a40 40 0 0 0 10.5-14.6q.8-2.1 1.3-4.4l.6-4.2q0-.2.2-.2v-.2l6.8-.4 18-1.2 1-.1.2-25.5q0-11.7.4-23.4 0-5.9.6-11.6zm-63.3 45.2q.2-.7.7-.3c3 4.5 4.3 9.4 4.9 14.7q.6 7.1 0 14.1l-.8 15-.5 7.7-1.3 19.2q.1 2.2-1.6 3.3l-.4.3q-1.2.6-1.9-.5l.2.1-.5-.3-.3-.5q-.5-.5-.5-1.2v-2.2l.9-12.6 1.9-29.4q.5-7 .3-13.7 0-7-1-13.7m24.9-84.3h.1a27 27 0 0 1 17.1 2H112c-5.3-.3-10.6-.4-15.8.9h-.5q-3 .6-5.4 2.3-2 2-2.8 4.8l-.1.2a9 9 0 0 1-3.2 4.3c-2 1.3-4.3 1.1-6.6 1.3-4 .4-7.3 3.3-9 6.8q-1.4 3.3-1.5 7l.1 3.6c.1.4.6 1.8.8 1.8q.8 0 1.2.6a88 88 0 0 1 15.3-11.7 73 73 0 0 1 8.8-4.7q-.2 0-.2-.2 1.6-1.4 3.6-1l.8-.2q.2 0 0 .3l-.2.2q2 .8 3.8 2 4.4 3.2 8.4 7l.5.5q3.7 3.2 7.6 6 2.2 1.3 4.6 2.3c1.3.5 3.5.9 4.1 2.3q.8 1.2-.3 2c-1.1 1.2-3.3.4-4.6 0q-2.4-1-4.7-2.3a49 49 0 0 1-8-6l-7.4-7.2L98 153l-.5-.5c-.5-.5-1.3-1.4-2.2-1.8l-4.8 2.8a114 114 0 0 0-17.8 14q-9.6 9.6-17 21.3l-.3.5Q51 196 48 203.2q-2.9 8-3.6 16.7l-1.3 17q-1 8.6-3.2 17l-.3 1.4q-2 7.5-3.2 15.3-.5 4-.5 8.3.1 4.2.9 8.4c.1 1-1 2-1.9 2q-1.7.1-2.3-1.5-1.4-4.7-1.2-9.8 0-5 1-9.9c1.2-6.4 3-12.7 4.5-19q2.1-8.5 2.7-17c.6-6 .9-12 1.8-17.8a59 59 0 0 1 5.1-16.7 115 115 0 0 1 20.6-29q-.6 0-1.2-.3-1.7-1.4-1.9-3.5-.6-4.7.5-9.3c1.3-4.8 4.6-9.1 9.4-10.9a12 12 0 0 1 3.8-.6q2 .2 3.8-.3c2-.6 2.7-2.9 3.5-4.6q1.2-3.3 4-5.4 3.3-2 7.3-2.5m54.1 8.5c1.8-.6 4 0 5.6.5q2.8.9 5 3 2.4 1.9 3.8 4.7l.1.2c.8 1.7 1.8 4 1.4 6v.1a36 36 0 0 1 9.2 6.4 51 51 0 0 1 8.2 10.5c9 15 10.6 33.2 11.7 50.5l.3 4.3c.5 9.5 1.2 18.9 3 28.2l.1.7c1.9 9.7 4.6 19.5 4.3 29.5 0 3-4.5 3-4.6 0-.5-11.2-3.1-22-4.9-33-3-19.4-1.5-39.4-6-58.6a79 79 0 0 0-8.2-21.6 56 56 0 0 0-13.6-16.3c-.8.9-2.4.4-2.8-.8q-.3-1.2-.4-2.6l-.7-2.3q-1-2.4-2.7-4.1a17 17 0 0 0-4-3.3c-1.5-1-3.2-1.2-4.8-1.9m6.7 103.7q0-.2.2-.1.9.8 1.4 2a42 42 0 0 0 5.2 6.6l3.7 3.7q2.2 1.8 4.3 3.8c2.7 2.9 3.1 6.9 3.7 10.6v.4l1.3 10v.4q.4 1.6-.4 3c-.7 1-2.2 1.4-3 .4-1.6-1.6-1.3-4.5-1.5-6.6l-.6-5.3v-.9q-.3-3-1-6-.5-2.4-2.4-4.2l-3.7-3.7a37 37 0 0 1-5.5-9l-.1-.2c-.6-1.5-1.6-3.3-1.6-5m22-62.4q.2-.3.3 0l.1 5.2c.3 14 .1 28.1 1.5 42.1q1.2 9.9 3.3 19.6l2.3 9.9 2 9.7a96 96 0 0 1 1.2 9.7v.4c.2 1.6.6 3.9-.3 5.3-.9 1.5-2.7 1.5-3.7 0-1-1.3-.7-3.7-.9-5.3a239 239 0 0 0-2-14.5c-1.1-6.6-2.8-13.1-4-19.7q-1.9-10.2-2.1-20.5c0-7 .7-13.9 1-20.8zm-66.3-43.7c.4-1.2 1.7-2 3-1.7 1.2.4 2.2 1.8 1.7 3q-.9 2-2.1 3.8l-2.4 3.1.8.8 1.1 1.3 1.4 1.4a131 131 0 0 0 15.7 13.7l.3.2q1 .6 2 .7c1.7-.2 3.2-2 4.4-3.1a66 66 0 0 0 9.5-11.3c-1.2-1.3-.9-4-1-5.5V140q-.1-1.2.4-2 0-.1.1 0 .9.4 1.2 1.5l1 2.3 1 2.5.7 1.9.3.3q.5.3.8 1c.3 1-.3 2-.9 2.8a67 67 0 0 1-11.9 13.8l-.3.2a10 10 0 0 1-4.6 2.6c-2.2.3-4-.8-5.6-2l-.1-.1a91 91 0 0 1-13-12.1 43 43 0 0 1-6.4-9.9q0-.4.4-.2l2.1 2.2v-3.4q-.1-2 .4-4.2"/><path fill="#fff" d="M167 109.4c-1.3-9.6-4.4-18.9-4.8-28.6l-.8-12.4c0-2.6-3.4-3.5-4.7-1.2-3-3.2-8.2-2.8-12.2-2.7a61 61 0 0 0-54 39q-.1.7.2 1.6c-3.8 12.5 9.5 20.6 18.6 26.2q5.5 6 12.9 9.3a45 45 0 0 0 18 4.3c1.4 0 2.2-1 2.3-2.2 2-.5 5.4 0 6.5-2a31 31 0 0 0 18-31.3"/><path fill="#000" d="M161.4 75.5q.2-.5.5 0 1.2 3 2.1 6.1l1.5 6.2 1.8 10.5q1.6-1.4 3.7-.3 1 .6.7 1.7 0 .7-.4 1.5.6.4 1 1.2.6 1.8-.2 3.7l.1.2c.8 1.5.4 2.9-.2 4.4-.4 1-.2 2.3-1.1 3.2a9 9 0 0 1-2.2 3.5q0 2.5-.6 4.9A28 28 0 0 1 158 138a33 33 0 0 1-25.5 6.7l-.3-.1c-2.8-.5-6-1.3-8-3.4-1-1-.3-3.4 1.4-3.2q1.4.2 2.6.6a31 31 0 0 0 6.2 1.7q4.4.4 8.7-.3a30 30 0 0 0 14.2-7q7-6.3 7.7-15.7c.5-6.9-.3-14-1-20.8q-.5-5.2-1.3-10.6zm-40.6-22.3h.2a48 48 0 0 1 26.4 2.4q2.4 1 4.7 2.5l3.1-.2c1.3 0 2.6.7 2.7 2q2 .2 3.1 1.5.4.5.6 1.2l2.2.8c.8.4 1.3 1.6 1 2.5l-.2.6-.1.2c.7 1.1.3 2.6-.8 3.2a8 8 0 0 1-2.5 1l.2 1.2q0 .2-.3 0l.8 2.2c.2.4-.4.8-.6.4l-1.6-3.6q-.7 0-1.5-.4-.5-.2-.8-.7c-1.7 2.2-5 3-7.4 3.6a58 58 0 0 1-8.3 1.5q-7.2.7-14.6 1h-1a13 13 0 0 1-11.5 3q-.8.8-2 1.1a9 9 0 0 1-4 7c.7 2.4.6 5-1.4 6.7l-1 .5.1.2c1.1 2.5 1.4 5.3-.6 7.4-.8.8-2.2.6-2.8-.4l-.2-.2-.2.3c-.8.3-1.1 0-1.8-.3a11 11 0 0 0-3.7-1 9 9 0 0 0-5.4 9.6 7 7 0 0 0 3.5 5.1q1.5.6 3 .5c1.3-.2 2.3-1 3.7-.6q.8.3.9 1.2 0 1.4-.8 2.1 1.4 1.4 2.5 2.8a58 58 0 0 0 6.7 6h.1c1.5 1 3.4 2 3.5 4q0 .9-.9 1.5c-1.9 1.1-4-.4-5.4-1.5l-1.8-1.5-1.2-.2-.8-.4q-1.2.3-2.3-.4-1.6.4-2.8 0-1.2-.2-2-1-2 .6-3.8-.4-1.1-.6-1.6-1.8l-.2-.8v-.1q-1.6 0-3-1.2a4 4 0 0 1-1-2.6q-1.6-.5-2.8-1.9a5 5 0 0 1-.7-5.1l-.1-.3q-1.6-2.2-1.5-4.6v-.8a3 3 0 0 1-.8-4.9 4 4 0 0 1 .4-4V98c-.3-2.2 1.3-4.2 3.2-5.3l1.6-.7q.7 0 1.3-.4l.2-.3v-1.9q0-3.6.3-7.2.6-6.7 3.9-12.6 3-4.9 7.4-8.2c5.9-4.5 13.2-7 20.5-8M93.5 108c-.7-1.8 2.9-1.8 3.8-1.8 2.2.3 5.5 1.3 6.4 3.5.4.9-.7 1.8-1.5 1.5q-1.2-.5-2-1.4l-.6-.4.5.8c1 1-.8 2.5-1.5 1.2q-.5-1-.4-2.1l.2-.6-.2-.1h-.1c-.8-.5-4.4-2-4.3-.6z"/><path fill="#000" d="M143.2 128.3a9 9 0 0 1-3.7-2.8q-.5-.7-.3-1.3a2 2 0 0 1 2-1.5q.6 0 1.1.7h.1q1 1.2 2 1.8 1.4.6 2.7.5 2.5-.4 4.2-2.4l.8-.8h.6q.3 0 .4.3l.2.5a5 5 0 0 1-1.8 3.5 8 8 0 0 1-4 2 8 8 0 0 1-4.3-.5m5-20.4c1.7 1 4.1 3.2 2.4 5.6-2 2.1-5-.3-6.4-1.4-1.3-.9-2.8 1.3-1.6 2.3 10.4 7.7 14.6-6.3 6.5-7.7-1-.1-1.2.9-.8 1.2m-18.5-9c.2-2.1 3.5-2.6 3.9-.5q.3 2.9-1 5.5c-.8 1.7-3 .9-3-.6-.3-2 0-3 .1-4.4m25.4-1c.4-.5 1.1-1 2-.7 2.4.7 1.7 4.3.8 6-.5 1-2 1.2-2.7.4-1.2-1.4-1.7-4-.3-5.4zm-22.5-8.5.4-.1c1.2-.2 2.7-.4 3.6.6.5.5.6 1.5 0 2-1 .8-2.3.5-3.6.6q-1.5 0-3.1.5-3.3 1-6.1 3.2-.5 0-.4-.4c1.1-2.2 3.3-4 5.5-5.1q1.7-1 3.7-1.3m20.2-1h.3c3.3.7 7.6 2.1 9.2 5.4l-.1.6-.3.2-2-.8-.6-.3-2.1-.9a25 25 0 0 0-4.9-1l-1-.4-.5-.8q0-.7.2-1.3.3-.4.8-.6.4-.3 1-.1"/><path fill="#000" d="M148.9 138.7q-9.4 1.3-13.6-.6c-4.2-2-8.3-3.8-12-6.4a31 31 0 0 1-9.6-9.8q-3.2-5.7-5.9-11.6l-1.5-3.3c-.6-1.1-2.2-.8-2.2 1 0 2-.1 15.8 3 21.3 3 5 7.9 8.4 12.8 11.5 5.4 3.3 12.6 7 19 7.9 5.9.8 12.5-1.6 16.7-5.6 4.5-4.2 5.7-9.8 8-15.3.5-1.2-1.3-2-1.8-.7q-1 2.2-13 11.6"/><path fill="#000" d="M166 104.7q-.8 2.5-2.5 4.7c-4.5 3.8-9 1.7-11.1-3.5-.9-3.6 1.4-7.5 3.7-10.2 3.5-3.5 9-1.7 10.6 2.4l.2 1.6a14 14 0 0 1-.8 4.8m-43.3-3c6-7.1 17-7.5 16.8 3.4-1.3 13.7-22.7 10.3-16.8-3.5m45.1-6-.7-1s-.1-.5-.4-.6c-4.6-5-12.6-2.1-15.5 2.9q-.9 1-1.3 2.2c-2.9-.6-6.2-.5-8.9.6-2.6-6.9-10.6-7.5-15.8-4.5-3.3 1.6-5.4 5-8.6 6.8-7.5.5-15.5-1.2-22.8.7-5.8 1.2-1 4.2 0 2.2 6.9-2 15.1-.3 22.3-.8a4 4 0 0 0 3.6 2.3c1.5 13.7 21.5 11.4 22.2-.8a9 9 0 0 1 3.1-3.2q.8 0 1.5-.4 1.4-.1 2.8.9c2.5 15.1 17 13.4 19.7 0l.3-.5c.9-1.2 3-1.6 2.7-3.6s-2.8-2-4.2-3.2"/></g></svg>