<svg xmlns="http://www.w3.org/2000/svg" viewBox="0 0 240 324"><title>peep-105</title><g fill="none" fill-rule="evenodd"><path fill="#fff" d="M186.5 183.1a42 42 0 0 0-27.4-30c-2.7-1.6-5.3-8-8.9-9.3-.6-.2.4 1.4 0 1.4-1.2.4-2.5.4-3.8-.8-2.4-2-3.1-8.2-4.6-11-7.5-14.6-26.4-8.8-29 7.3a43 43 0 0 1-6.1 3c-2 1-3.7 3.3-5.8 4.2-1.8.7-4.8.2-6.6.8a41 41 0 0 0-24.7 19.4 87 87 0 0 0-13 21.2c-9.8 22.5-12.5 47.4-15 71.6.1 4.2-2.7 16 1.5 18q-.5.6.3.8 15.8-.1 31.4 2.6c5 1 10 2.1 15 2.3 10.7 0 21.2-1.8 31.8-.1 12.7 0 28.1-.4 42.3-1 13.2-.4 26.5.7 39.5-1.5 1-.2 1.6-1.5 1.4-2.4-1.6-5.6-2.3-11.3-3.2-17q.4-5.6-1.5-11-5.2-34.5-13.6-68.5"/><path fill="#000" d="m182.2 213.4-1.2 4-1.8 3.6-.3.4v.6l.9 6.8.1 1 1.9 14.1a1208 1208 0 0 0 5 33.8l.3 1.5c3 .7 3.7 4.8.8 6.3q-2.2 1-4.2-.6c-1.1-1-1.2-3-1.5-4.6l-.2-1.4a297 297 0 0 1-4.9-40v-8.4l-.2-9.7v-.1q-.1-.8.3-1.3l.4-5.7h.3q0 2.4.6 4.8a13 13 0 0 0 3.5-5.2zm-38-74.7a9 9 0 0 0 2.7 4.7l1.3.8a2 2 0 0 1 1.7.6l-.1-.7q.1-.4.4 0 2.7 14 5 28l.6 4.1.6 4a470 470 0 0 1 5 45.7q1 13.2 1.3 26.5l.2 6.6.4-2.6a301 301 0 0 0 4.3-37 86 86 0 0 0-2-26.4q-.8-3.2-2-6.3l-2.8-6a11 11 0 0 1-.8-7c.4-2.1 1.2-4.1 1.4-6.4.3-4.1-1-8.1-3-11.8a65 65 0 0 0-7.1-11q0-.3.2-.2 2.9 2.6 5.4 5.5l2.2 2.8c8 1.4 14.8 6.3 19.4 12.8 5.3 7.4 8 16.3 10 25.1l6 29.4 6.1 30.4 3.1 15.1 1.6 7.6.9 4q.5 2-1 3.4-.6.5-1.4.2h-.1l-.2-.1q-.8-.4-1.3-1.2-.5-1-.6-2.2l-.7-4.1-1.2-6.3-2-10.3-1.7-8.3-5.8-29.6q-2.7-14.3-5.7-28.5l-.1-.5-.1-.5c-2-8.2-4.6-16-9.4-23-3.8-5.2-9-10-15-12.3l1.2 1.9c2.5 4 4.3 8.8 3.9 13.6-.3 2.3-1.1 4.6-1 7 0 2.1 1.3 4 2.2 5.8q3 6.2 4.5 13a98 98 0 0 1 1.2 27.6q-1.1 15-3.6 30l-2.6 15.2-1.5 7.5-.2 1.1-.4 2v.4q-.1.9-.4 1.3l-1.2 2.7q-.3.6-1 .8-.6 1.4-2.3 1.5H145l-24.1-.2h-6.1l-5.6-.6q-3.3-.4-3-3.9l.3-1.4q-.8.3-1.3-.2l-.3-.3q-.8-.7-1.1-1.5l-.8-1.8a196 196 0 0 1-4.7-12 206 206 0 0 1-10.9-45.9l-.2-2.4-.1-.7a72 72 0 0 1-.7-11.7 22 22 0 0 1 1.4-7.1q1.3-3.1 3.4-5.8l.1-.2.1-.2q1.8-2.5 2-5.5 0-3.2-1.2-6.1l-.2-.5-.1-.3c-1.5-4-3.1-8-2.6-12.5.8-6.5 4.8-11.7 9.7-15.7q-6.7 1.4-12.6 4.8-6.8 4-12.1 9.8a88 88 0 0 0-15.3 25q-6 14-9.4 29.2a253 253 0 0 0-6.1 45.8l-.5 7.9q-.1 4-1 7.8c-.3 1.2-2.3 1.3-2.5 0q-.5-4.5-.2-8.9v-.3a365 365 0 0 1 2.2-26.8c2.5-21 7.2-41.9 16.4-61 4.3-9 9.8-17.8 17.5-24.3a45 45 0 0 1 12.3-7.4q6-2.4 12.3-2.4 3.2-2.4 6.6-4.2.3 0 .2.2l-.2.2q.5 0 .8.4 1.2 1.4 2.2 3l2.8 3.7a258 258 0 0 0 13 14.8l.5.5c1.5 1.5 3 3.3 4.8 4.5q1 .8 2-.1l1.5-2.2.1-.1a125 125 0 0 0 9.7-16.8l.3-.6 1.4-3 .3-.7a8 8 0 0 1-2.8-4.3q-.6-2.2.5-4.5.3-.3.7.1m-65.6 62.5-.6 17.5v2q.7.6.4 1.8 0 .4-.6.6v1.9q-.7 12.4-1.8 25-1.7 15.5-3.7 31.1c-.1 1.5-1.2 2.7-2.7 2.4-1.7-.2-2.3-1.6-2.1-3l2.3-17.3.8-6.5a1128 1128 0 0 1 4.7-34.8l-.1-.2-2.3-2.8-4-5.7 5.4 4.3 1.5 1.3zm26.6-56-3.4 3.2-.4.3-.4.4a41 41 0 0 0-5.4 6 18 18 0 0 0-3.4 14.2c1 4.2 3.3 8 3.9 12.2q.5 3.2-.7 6.3-1.4 3-3.3 5.6c-2.5 4-2.9 8.5-2.6 13.2q.4 7.3 1.5 14.5 2.1 14.7 6.3 29 2.1 7 4.7 14a102 102 0 0 0 4.3 10.5l-.3-5-.5-7.2a1032 1032 0 0 1-2.4-66q0-12.8.5-25.7l.9-12.1v-1q.4-5.3 1.2-10.8l-.4-1zm9.6-14.7q.1-.2.2 0 .9 3.2-.1 6.5l-1.2 3.4-.2.4q-.5 1.4-1.7 2.4-.7.4-1.4 0l-.1-.1-.1-.1q-.5-.6-.4-1.3.8-1.4 2-2.7.8-1.2 1.3-2.5 1.2-3 1.7-6"/><path fill="#fff" d="M169.2 79.2c-4.2-25.2-36-29.8-56.7-24.5a17 17 0 0 0-7.2-11.9C89 31.2 70 51 73.8 68c.7 5.1 4.8 11 10.6 10.1-7.3 13.8-10.1 41.5 5.9 50 1.5 1.1 1.8 3.3 3 4.8 1.9 2.3 10.1 5.2 14.6 2.9a13 13 0 0 0 4.9 3c9.7 7.7 24 9.5 35.8 6.3 7.3-1.3 15-4.6 18.7-11.3 3.2-5.1 1.7-11.1.2-16.6q-.9-4.5-1.3-9 .7-1 .7-2.2c.6-2.7 1.8-5.3 2.4-8a46 46 0 0 0-.1-18.8"/><path fill="#000" d="M168.9 92c-.3 3-1.6 5.8-2.6 8.6l.1-5.2c-1.2-10.8-16-13.7-21.8-22 .3-.4.3-4.6-.5-3.4-3.3 14.6-23.1 22-36.6 22-1-.9-3 0-2.7 1.7q3 13.5 1.2 27.2c-.6 3.2-.7 7-2.7 9.7-2 2 .5 2.1 1.8 1.7l1.2 1.5c-2 1.4-4.8.6-6.8-.3-2.2-1.1-3.5-3.4-5-5.2a9 9 0 0 0-4-3.8c-9.5-6.4-9.2-20.6-7.9-30.9 4-30.5 37.9-45.2 65-34.6 14.7 3.7 21.6 19 21.3 33.1M80.4 74.7c-5.8-5.8-4.7-15.9-1-22.5 7.3-14 28-13.5 30.5 3.4a45 45 0 0 0-24.8 21.2q-2.7-.4-4.7-2m88.8 4.4c-4.2-25.2-36-29.7-56.7-24.4a17 17 0 0 0-7.2-12C89 31.2 70 51 73.8 68c.7 5.1 4.8 11 10.6 10.1-7.3 13.8-10.1 41.5 5.9 50 1.5 1.1 1.8 3.3 3 4.8 1.9 2.3 10.1 5.2 14.6 2.9 1 1.3 7 5.2 6.6 1.3-.4-1-1.8-1.3-2.7-1.8q-3-1.5-4.9-4.3a70 70 0 0 0 1.5-36.3c13.7-.7 29.9-6.7 36-20 4 9.7 16.7 11 19.9 21.7.2 5.6-1 11.2-.2 16.8.3 5.6 3.2 11 1.5 16.5-4.7 12-21.7 13.8-33 13.3-2.6-.2-4.8-1.7-7-3-1.3-.7-2.9.6-2 2 3 4.3 9.3 4.7 14.2 4.5 12.6-.7 30.8-4.4 31.5-20-.5-6.2-2.9-12-3-18.3q.6-1 .6-2.2c.6-2.7 1.8-5.3 2.4-8a46 46 0 0 0-.1-18.8"/><path fill="#000" d="M132.5 123.6c0-2.3 2-2.7 4-2.4q4.8.8 9.8 1h.5q.2-.3.5-.3 2.8-.3 5.5-.2h5c2 .1 4 1.1 3.7 3.4-.2 2.1-2.2 4-3.8 5.2l-1.5.9q-2.4 1.4-5.2 1.5c-3.8.4-8.3 0-12-1.7q-1.9-.8-3.3-2c-1.6-1.3-3.2-3.3-3.2-5.4m15.3 4.6q-2.4 0-4.6.7-1.5.6-2.9 1.4a25 25 0 0 0 10.3 1.2q2.3 0 4.2-1l-.6-.4a12 12 0 0 0-6.4-1.9m.5-20.3c-.4-.3-.1-1.3.8-1.2 8 1.4 3.9 15.4-6.5 7.7-1.2-1 .3-3.2 1.6-2.3l.5.4c1.5 1.1 4 3 5.9 1 1.7-2.4-.7-4.7-2.3-5.6m5.5-10.6c1.7-1.5 3.8-.4 5.1 1l.2.4q.5.4.7 1c1.5-1.2 3.4-2 5.2-1.5s2.8 2.2 2.5 4c-.4 2.1-2 3.5-3.6 4.6l-.5.3q-3 1.8-5.6 4.3c-.2.3-.8.3-1-.1l-.1-.3-.2-.3-3.5-7.6c-.7-2-1-4.3.8-5.8M134 98.6l.3-.3c1.2-1.5 3.4-2.4 5-1 1.9 1.5 1.5 4 .7 6l-3.2 6.9-.2.5-.3.6c-.2.4-.8.4-1 .1q-2.4-2.5-5.4-4.2l-.6-.4c-1.7-1-3.3-2.5-3.6-4.6-.3-1.8.7-3.5 2.4-4 1.9-.5 3.8.3 5.2 1.5q.2-.7.7-1m2.3-10.5c.6.8 0 2-1 2.3s-2.2 0-3.3.4q-1.5.5-2.8 1.5-1.5 1-2.7 2.2c-.5.5-1.1 1.7-1.9 1.7s.3-2.3.4-2.5q.9-2.2 2.4-4c2.1-2.3 6.5-4.8 9-1.6m23.1-.7.6.2q2 .4 3.7 1.5l.2.2c1.4 1 3.3 3 2.4 4.9h-.4c-1.3-.5-2.2-1.7-3.6-2.1l-.3-.1q-2.1-.9-4.4-1c-1 .4-2.4.1-2.6-1v-.3c-.2-.8 0-1.9.9-2.3 1.2-.6 2.3-.3 3.5 0"/></g></svg>