<svg xmlns="http://www.w3.org/2000/svg" viewBox="0 0 240 324"><title>peep-48</title><g fill="none" fill-rule="evenodd"><path fill="#fff" d="m55.2 285.5 7.6.4c33 1.2 66.1-2.6 99.2-3.4q17.3-.6 34.4.8c1.1 0 2.4-1.2 2.3-2.3-2.2-18.3-4.8-36.6-6.2-55q0-1.5.5-2.8c0-.1.4-1 .7-1-.1.1.3 0 0 0 1.7-.3 3.3-2 2.1-3.8-12.4-19-29.3-36.4-34.8-59-1.3-6-6-6.5-10.9-9-1.5-.9-5.3-3.4-6-5.2-1.4-6.4 1.2-12.6-6.4-15.2-5-1.4-13.8-2.6-18.8-1.1-6.2 2-5.7 9-9.3 13.7-1.8 2.8-5 6.6-8 7-1.3.2-2.4-2.6-3.8-2.4-22 5.3-51.8 41.7-61.2 61.8-2.2 6.3 4.7 4.4 4.3 10.8-.5 12-1.7 27.5-1 39.6.6 7 .2 14.4 2.3 21.2-.5.7.3 1.4 1 1.7.9 1.5 9.4 3 12 3.2"/><path fill="#000" d="M112.3 135c.6-2.5 4.7-1.4 4 1.1q-1.7 6.2-6.5 10.3a18 18 0 0 1-9.1 4.2l.9 1 2.2 2q2.4 1.9 5 3.3a40 40 0 0 0 23.5 3.9 45 45 0 0 0 11.3-2.6q2.4-1 4.7-2.5l.3-.3a8 8 0 0 0 2.3-2.3c-1.5.4-3.3-1.2-4.3-2q-1.6-1.6-2.6-3.6c-1.4-2.5-2-5.7-1-8.4q.3-.3.4 0 .3 4.8 3.4 8.5 1.5 1.6 3.5 2.5h.2q1 .4 1.4 1.2h.5q-.2-.4-.2-1c0-1.7 2.3-1.8 2.6-.3q0-.2 0 0v.2-.1h.1l.3.1 1.2.3q1.3.4 2 1.4t.8 1.8q5.6 2.6 10.1 7a73 73 0 0 1 15 22.7l5.2 12.9.3.6q2.9 7 3.7 14.4 0 .8-.3 1.2v1.3q1 0 1.8 1h.7c1.5.4 1.7 2 2 3.4q.4 2.1.4 4.2 0 1-.8 1.4l-2.9 1-2.1.8q.5 1.3.7 2.5l.9 3.5c1.6 8.1 2.6 16.3 4.1 24.4a367 367 0 0 0 5 22.2v.5q.6.3.9.8 1 2.3-1 3.7c-1.5.8-3.2 0-4-1.3q-.8-1.6-1-3.3a171 171 0 0 1-5.2-28v-.6a289 289 0 0 1-1.7-19v-3.3l.1-1.4v-.2a50 50 0 0 1-14 2 232 232 0 0 0 4.6 31.3l1.6 7.7 1 4q.3 1.2-.1 2.3l1 3 .1.3c.6 1.7 1.7 3.4.5 5q-.9 1.4-2.5 1.4-1 .5-1.7.3a111 111 0 0 1-21.7 2.3c-15.3.6-30.6-.4-45.9-.1q-11.7.2-23.4 1l-11.6.6h-1.2a86 86 0 0 1-10.6 0c-1.2 0-2.4-1.2-2.3-2.4l4.4-45.4.1-1.3.8-9.8-2.3-.3a84 84 0 0 1-24.1-6.7l-.3-.2-2.2-.9V232q0 7.5.4 15 .6 13.2 1.7 26.4l.7 6.7q.2 2-1.4 3-.8.4-1.6 0c-1.4-.7-1.5-2.3-1.6-3.7l-.8-9.7a250 250 0 0 1 .4-38.8l.1-1q.3-5 1-10c-2.3-1-4.6-2.4-5.7-4.5-1.3-2.9.2-5.3 2.4-7v-.8a98 98 0 0 1 25.8-42.4A85 85 0 0 1 83 150.9l.3-.1q2.7-1.5 5.6-2.2l.6-.4c.7-.5 1.7-.2 2.2.5l.7-.4.3-.1c1.7-.8 3.8-1.5 5.6-1q1.8.5 2.5 2.2l2.8-1.6a23 23 0 0 0 8.7-12.7m81.8 82.5h-.5c.3 0-.4.2-.5.3a29 29 0 0 1-13 3.8q-1.7.1-3.6-.4l.5 6 2.2-.5a122 122 0 0 0 11.7-3.4l3.7-1.6.3-.2q0-1.3-.4-2.6zM40.4 208q-.4 1.5-1.8 2l-.9-.1v.1c-.8 1.7-1 3.5.8 4.8l2.7 1.5 5.3 2.2h.3a108 108 0 0 0 19.3 5.5l4.2.4v-5.7l-1.5-.2a73 73 0 0 1-13.3-2.9 56 56 0 0 1-15.1-7.6m59.5-58.3c-1.3-1.3-3.6-.8-5.1-.2l-1.3.6h-.1q-.7.4-.3 1.1.5 1.2 1.2 2.2 2.8 4.5 7 7.9a43 43 0 0 0 35.4 8 32 32 0 0 0 15.6-8l.4-.4c1.7-1.7 4-4.2 4-6.7-.2-1.3-1.2-1.3-2.2-1.6q-.6 0-1.1-.4c.2 1.2-1.2 3-2 3.7a19 19 0 0 1-5.6 3.8 43 43 0 0 1-12.4 3q-7.1 1-14.4-.3a33 33 0 0 1-16.4-8l-.2-.3c-1-1-2.2-2.2-2.8-3.5H99q-.3-.1-.1-.4l.5-.2v-.4q.3 0 .4.2"/><path fill="#fff" d="M162.6 89.6c-.5-6.5.2-13.3-2.3-19.5-4.3-10.3-16.6-13.7-26-17.6-3.9-1.1-16.7-1.3-21.1-2.8-10-3.3-12.5-7.3-20.5-1a9 9 0 0 0-2.8 4q-.2 1 .4 1.9a13 13 0 0 0-3.1 13.6c5.8 12.3 5.5 19 3.6 32.1-2.4 12.4 3.2 16.9 12.4 23.6q-.5 1.2 0 2.3a40 40 0 0 0 48.3 14.6c7-3 10.1-10.6 11.9-17.3 2-7.6 2.7-15.5 1-23.2-.7-3.6-1.6-7.1-1.8-10.7"/><path fill="#000" d="M100.8 17.6q2-.1 2.8 1.7l.5 1.2c3.2-1.6 7.9-1.2 10 2 1.4 2.4.5 5.1 0 7.6l-.4 1.6q1.1.7 1.2 2v.1l-.1 2.3a12 12 0 0 0 2-3c1.9-2.7 6-.4 4.5 2.5l-1 1.6-1 2.4q1.3.5 1.3 2a6 6 0 0 1-3 5.6q-1 .6-1.8.3l-.3.4q1.2 1 2.1 2.2l5.6-.4q3.6-1.3 7.5-.6l4.7 1.1 5 .7q3.2.5 5 2.9 2 0 3.8 1.2l7.7 5q1.4 1 1.2 2.8l-.1.5.2.3q1.2 1.7 2.1 3.5a38 38 0 0 1 5.4 12.1l-.2 2.2-.4 2.8q-.2 1-1.2 1a121 121 0 0 1 1 11.7c.6 1 1.9 1.6 2.8 1.9q2 .3 3.8-.5c.8-.3 1.4.7 1 1.3-1.1 2-3.6 2-5.5 1.1q-1.2-.5-2-1.6l.1 2v.6c.4 7.1 1.3 14.5 0 21.5a27 27 0 0 1-24.7 22.1 34 34 0 0 1-14.5-2.6c-2.7-1-1.6-3.2.2-2.6 3.2 1 9 2.7 14.3 2 12.4-1.7 22.9-7.8 21.8-34.5l-.7-11.3q0-5.6-.2-11l-.1-1.3-.2-4.5-.4-1.7q-.7-2.3-1.8-4.4l-.5.3a7 7 0 0 1-6-1.5l-.5-.7q-1 0-1.7-.7-.7-.8-.4-1.6a8 8 0 0 1-2.9 3.5q-3 1.8-6.6 1.8a46 46 0 0 1-9.8-1.2v.1a7 7 0 0 1-8 1.4q-2.5-1.1-4-3l-.2 2v.2q0 2-1.3 3.4c-1.5 1.4-3.6.9-5.3 0l1.4 4.8v.3q.7 1.7.9 3.4c.2 2.3-1.3 4.5-3.8 3.7-1.3-.4-2.4-1.5-3.4-2.3l-.6-.6a60 60 0 0 1 2.9 16.5q0 .5-.6.5-1 0-2-.4h-.1a8 8 0 0 1-3.2-1.2q.3 1.1.2 2.2-.2.4-.3 0c-.6-2.6-3.7-4.6-6.4-4.1-2.9.5-5 3-5.6 5.9s.6 6.6 2.5 9c1 1 2.2 2 3.6 2.1h2l.8-.4 1.1-.3a.9.9 0 0 1 1.2 1.2q-.4 1-1.2 1.6l1 1.6a38 38 0 0 0 5.7 6l.5.3q1.6 1.2 2.7 2.9c.6 1-.2 2.2-1.3 2.2-3.4 0-6-3-7.7-5.7l-.7-1.2-.3.3.2.6c.6 1.5-2 2.5-2.7 1l-1.8-3q-.6 0-1-.5l-1.7-2.5-1-.8-.2.2q-.6 1.3-1.4 2.5l-.1.1c-1.2 1.4-2.6 2.9-4.5 3.2-.5.1-1-.5-.6-1l4-3.2 1.6-2v-.2l.3-.4-1.6-1c-1.5 1.2-3.4 1.7-5 2.8h-.1c-1.5 1-3-1.1-1.9-2.3q1.9-2 3.6-4.3-.8-1.5-1-3.3v-1a4 4 0 0 1-2.4-.8l-.2-.2q-1.4.4-2.6.4c-2 0-2.8-2.3-1.6-3.8a5 5 0 0 1 5.3-1l.2-.2v-1.2a5 5 0 0 1-.7-3.7l.2-.6-.3-1.1v-.2a3 3 0 0 1 0-3.7V94q-1.5-1.2-1.4-3 .1-1.2.9-2v-.7a11 11 0 0 1-.1-6.3q-.3-.5-.2-1c0-1.7 1.4-3.1 3-3.1h.6q0-.7.4-1.3l-.3-.1q-1.5.8-3.3 1.2c-.8.3-1.7-.7-1.2-1.5l.8-1H82c-.8.2-1.6-.4-2.1-1L78 75.9c-1.5 1.6-4 .4-4.2-1.6q-.7 0-1.2-.6a22 22 0 0 1-7.9 1.8c-2 0-3-2.2-2.2-3.8q1-1.6 2.3-3-2.1.7-4.2 1c-.8.1-1.9-.5-2.2-1.3q-1.8-4.2.3-8.2l.1-.3.5-1c-1.7-1.8-1.8-4.4-1-6.6q-.5-1-.2-2 1-2.7 3-5l-.3-.7c-.7-2.2.1-4.9 1.8-6.4q1.6-1.4 3.6-1.9.8-1.4 2-2.6l.1-.2a8 8 0 0 1 6.1-4q.2-1.6 1.7-2.1.3-1.2 1.1-2.3 1.5-1.8 3.5-1l2 1.5q.4-.3 1-.3l2.1-.1 2.7-1.2a7 7 0 0 1 3.9-1.6 19 19 0 0 1 6.3-1v-1.3q.2-2 2.2-2.5m-1.4 102.3h-.7l.2.6.5.2zm-10.9-3.3-.1.3-.1.1h.9-.1zm5.9-11.8q2.6.1 5.1 1.3h.2c1.5.8 4 2.2 3.8 4.1q-.1 1-1.2 1.1c-1.7 0-2.7-1.9-4-3a20 20 0 0 0-4-3q-.4-.2 0-.5m-8.5-26c-.4 0-.3.5 0 0m24.2-29a21 21 0 0 0-11.7 5 41 41 0 0 0-7.3 7.7l-1.4 4.3-.6 3v.2q-.4.5-.5 1 .7.6 1.5.8l.4.3q.7-1.1 1-2.4A48 48 0 0 1 103.8 56q4.1-3.1 9-4.7a10 10 0 0 0-2.6-1.6"/><path fill="#000" d="M143.2 128.3a9 9 0 0 1-3.7-2.8q-.5-.7-.3-1.3a2 2 0 0 1 2-1.5q.6 0 1.1.7h.1q1 1.2 2 1.8 1.4.6 2.7.5 2.5-.4 4.2-2.4l.8-.8h.6q.3 0 .4.3l.2.5a5 5 0 0 1-1.8 3.5 8 8 0 0 1-4 2 8 8 0 0 1-4.3-.5m5-20.4c1.7 1 4.1 3.2 2.4 5.6-2 2.1-5-.3-6.4-1.4-1.3-.9-2.8 1.3-1.6 2.3 10.4 7.7 14.6-6.3 6.5-7.7-1-.1-1.2.9-.8 1.2m-18.5-9c.2-2.1 3.5-2.6 3.9-.5q.3 2.9-1 5.5c-.8 1.7-3 .9-3-.6-.3-2 0-3 .1-4.4m25.4-1c.4-.5 1.1-1 2-.7 2.4.7 1.7 4.3.8 6-.5 1-2 1.2-2.7.4-1.2-1.4-1.7-4-.3-5.4zm-22.5-8.5.4-.1c1.2-.2 2.7-.4 3.6.6.5.5.6 1.5 0 2-1 .8-2.3.5-3.6.6q-1.5 0-3.1.5-3.3 1-6.1 3.2-.5 0-.4-.4c1.1-2.2 3.3-4 5.5-5.1q1.7-1 3.7-1.3m20.2-1h.3c3.3.7 7.6 2.1 9.2 5.4l-.1.6-.3.2-2-.8-.6-.3-2.1-.9a25 25 0 0 0-4.9-1l-1-.4-.5-.8q0-.7.2-1.3.3-.4.8-.6.4-.3 1-.1"/><path fill="#000" d="m172.8 91.8-1-.3-1.3-.2c-6-1.4-20 .6-20.5 5.7-2 .7-3.6 0-5.8.1-1.7-7-31-6-32.4-1.8-1.4-.4-3.4-.3-5-.4q-4.8 0-9.8 1c-6 1-14.3 2-10 9.6.7.8 1.9.2 2-.8-1.5-3.6 1.7-4 4.2-5a41 41 0 0 1 18.7-2q.8 1 2 1.4c4.2.7 2 3.8 4.6 4.3-.5 11 12.8 17 20.5 9.7 3.1-3 3.8-7.4 4.6-11.4q.5-.2.7-.6c1-1 1.5-1.8 3.3-2 1.8-.3 3.2.2 3.3.4l.2.3.3.3c-1.8 11 6.7 17.8 15.3 12.2 3.7-3.5 4.5-8.9 4.6-13.6q.8-.5.7-1.7-.3-1.6 1.2-2.3c1.1-.6 1-2.7-.4-3M136.1 97c-1-.3-1.5 1.4-.5 1.6q1.2.2 1.8 1.2c.7 1 2.1.1 1.6-.8q-1-1.6-3-2m31-1q-.6-.3-1.1.2-.2.8.3 1.2t.7 1v.1c0 1 1.7 1.1 1.7 0q-.1-1.6-1.6-2.6"/></g></svg>